<?xml version="1.0" encoding="utf-8"?>
<svg version="1.1" id="Layer_1" xmlns="http://www.w3.org/2000/svg" xmlns:xlink="http://www.w3.org/1999/xlink" x="0px" y="0px" viewBox="0 0 458 348" style="enable-background:new 0 0 458 348;" xml:space="preserve">
<!-- 2016 John Hobbs - CC BY-SA 4.0 http://creativecommons.org/licenses/by-sa/4.0/ -->
<style type="text/css">
  .body { fill: #3DBFEF; stroke: #000000; stroke-width: 14; stroke-linejoin: round; stroke-miterlimit: 10; }
  .shoulder { fill: none; stroke: #000000; stroke-width: 12; stroke-linecap: round; stroke-miterlimit: 10; }
  .nose { fill: #BD3C96; stroke: #000000; stroke-width: 12; stroke-linecap: round; stroke-miterlimit: 10; }
  .eye { fill: #000000; }
</style>
<path class="body" d="M448,330.5c-2.6-2.9-6.4-7.1-11.3-12c-27.1-27-52.4-41.3-64.7-48.7c-19-11.4-45.3-29.2-76-57.3
c1.3-7.3,2.3-15.6,2.7-24.7c0.6-15.7-0.9-29.5-3-40.6c-1.3-4.7-4-12-9.7-19.4c-7.3-9.5-15.9-14.4-20.7-16.7
c-0.4-2.2-0.9-4.4-1.3-6.7c-2.2-10.8-4.5-21.5-7-31.9c-5.2-9.2-22.3-36.8-57.7-51.4c-5.8-2.4-45.6-18.2-88-0.7
C89.4,29.6,75.6,43.9,70,49.9C58.2,62.4,52,74.2,43.3,90.5c-6.7,12.7-13.8,28.3-20,46.7c-1.9,1.1-6,3.7-9,8.8
c-3.4,5.8-3.4,11.3-3.3,13.5c-0.1,8.8,0.5,19.3,2.5,31c1.6,9.1,3.7,17.1,6,24c2.4,5.4,5,9.1,7,11.5c1.3,1.6,2.3,2.6,3.5,4.5
c2.3,3.7,3,7.4,3.3,10c0.7,13.9,0.9,29.1,0.3,45.4c-0.6,16-1.9,30.9-3.7,44.6C169.3,330.5,308.7,330.5,448,330.5z"/>
<path class="shoulder" d="M32.8,250.6c21.9,22.2,42.9,35.2,54.4,39.5c8.9,3.3,18.6,5.4,18.6,5.4c5.6,1.2,10.6,1.9,14.5,2.4
c4.2,0,11.9,0.5,19.5,5c2.5,1.5,4.5,3.1,6.1,4.6"/>
<ellipse class="eye" cx="111" cy="88.3" rx="10" ry="21"/>
<ellipse class="eye" cx="234" cy="88.3" rx="10" ry="21"/>
<path class="nose" d="M181.7,223.8c-0.9-0.3-1.7-0.6-2.6-0.9c-2.2-1-4.2-2.3-5.9-3.9c-4.3-5.8-8.4-12-11.9-18.3
c-5-8.8-9.3-18.2-12.7-27.8c-1.8-12.2-2.8-24.6-3.2-36.7c-0.1-4.6-0.1-6.2,0-10.1c0.1-3.2,0.2-8.1,0.3-17.3c0-2.5,0.1-6.7,0.9-12.1
c0.2-1.4,0.5-2.9,0.8-4.3c0.6-0.4,1.3-0.8,2-1.1c1.7-0.7,3.2-0.8,4.3-0.9c5.4-0.3,11.3-0.5,17-0.7h29.2c3,2.5,5.6,5.4,7.8,8.6
c2,3.1,3.6,6.4,4.8,9.9c0.5,4.5,0.8,8.9,0.9,13.2c0,2.2,0,3.4,0,4.6c0,1.5-0.1,2.9,0,5.9c0.1,1.9,0.2,3.5,0.3,4.8
c0.2,2.5,0.3,3.9,0.1,6.2c-0.2,2-0.5,4-1,6c-3.3,6.6-6.3,13.3-8.9,20c-1.9,5-3.5,8.9-4.9,14.4c-0.8,3.2-1.2,5.2-1.5,7.1
c-0.3,1.7-0.6,3.4-1.2,5.9l-0.2,0.9c-0.7,3.1-1.9,8.2-4,12.5C189.4,215,185.9,219.7,181.7,223.8z"/>
</svg>
